# xmcd
#
# Track frame offsets:
#	150
#	14235
#	36500
#	54095
#	68325
#	81330
#	98687
#	114322
#	128962
#	142295
#	163567
#	182157
#	196097
#	212750
#	227615
#	241767
#	259372
#	274530
#	292677
#
# Disc length: 4101 seconds
# Revision: 1
# Processed by: cddbd v1.5.2PL0 Copyright (c) Steve Scherf et al.
# Submitted via: dBpowerAMP V12.0
#
DISCID=0a100313
DTITLE=Various Artist - Country
DYEAR=1993
DGENRE=Country
TTITLE0=Clint Black - A Better Man
TTITLE1=Pirates of the Mississippi - A Street Man Named Desire
TTITLE2=Steve Wariner - A Woman Loves
TTITLE3=Billy Dean - Billy The Kid
TTITLE4=Chris Ledoux - Cadillac Ranch
TTITLE5=Tracy Lawrence - Don't Talk To Me That Way
TTITLE6=Billy Dean - Give Me All the Pieces
TTITLE7=Paulette Carlson - I'll Start With You
TTITLE8=Billy Dean - I Won't Let You Walk Away
TTITLE9=Ronnie Milsap - Love Certified
TTITLE10=Little Texas - My Love
TTITLE11=Clint Black - Nothing's News
TTITLE12=Billy Dean - Only The Wind
TTITLE13=Clint Black - Put Yourself In My Shoes
TTITLE14=Collin Raye - Somebody Else's Moon
TTITLE15=Palomino Road - The Best That You Can Do
TTITLE16=Tom Wopat - Too Many Honky Tokns (On My Way Home)
TTITLE17=Little Texas - What Might Have Been
TTITLE18=Ricky Van Shelton - Wild Man
EXTD=
EXTT0=
EXTT1=
EXTT2=
EXTT3=
EXTT4=
EXTT5=
EXTT6=
EXTT7=
EXTT8=
EXTT9=
EXTT10=
EXTT11=
EXTT12=
EXTT13=
EXTT14=
EXTT15=
EXTT16=
EXTT17=
EXTT18=
PLAYORDER=
